<svg xmlns="http://www.w3.org/2000/svg" width="1200" height="170" viewBox="0 0 1200 170" role="img" aria-label="Animated engineering growth route">
<defs><linearGradient id="g" x1="0" x2="1"><stop stop-color="#22d3ee"/><stop offset=".45" stop-color="#8b5cf6"><animate attributeName="stop-color" values="#8b5cf6;#f472b6;#34d399;#8b5cf6" dur="7s" repeatCount="indefinite"/></stop><stop offset="1" stop-color="#34d399"/></linearGradient><filter id="gl"><feGaussianBlur stdDeviation="3" result="b"/><feMerge><feMergeNode in="b"/><feMergeNode in="SourceGraphic"/></feMerge></filter><style>.m{font-family:ui-monospace,Consolas,monospace}.s{font-family:Inter,Segoe UI,Arial,sans-serif}</style></defs>
<rect width="1200" height="170" rx="22" fill="#071015"/><text x="54" y="42" class="m" font-size="13" fill="#64748b">04 / ENGINEERING JOURNEY</text><text x="54" y="80" class="s" font-size="29" font-weight="800" fill="#f8fafc">GROWTH ROUTE</text><text x="54" y="120" class="m" font-size="13" fill="#94a3b8">FOUNDATION → DATA → CLOUD → PLATFORM</text>
<g transform="translate(520 22)"><path d="M0 112 C90 112 80 55 165 55 S250 112 330 90 S430 20 600 28" fill="none" stroke="#1f2937" stroke-width="8" stroke-linecap="round"/><path d="M0 112 C90 112 80 55 165 55 S250 112 330 90 S430 20 600 28" fill="none" stroke="url(#g)" stroke-width="4" stroke-linecap="round" stroke-dasharray="13 18"><animate attributeName="stroke-dashoffset" values="0;-190" dur="5s" repeatCount="indefinite"/></path><g class="m" font-size="10" text-anchor="middle" fill="#cbd5e1"><g transform="translate(0 112)"><circle r="19" fill="#0f172a" stroke="#22d3ee"/><text y="4">BASE</text></g><g transform="translate(165 55)"><circle r="19" fill="#0f172a" stroke="#60a5fa"/><text y="4">DATA</text></g><g transform="translate(330 90)"><circle r="19" fill="#0f172a" stroke="#a78bfa"/><text y="4">CLOUD</text></g><g transform="translate(600 28)"><circle r="19" fill="#0f172a" stroke="#34d399"/><text y="4">AI</text></g></g><circle r="6" fill="#fff" filter="url(#gl)"><animateMotion dur="5s" repeatCount="indefinite" path="M0 112 C90 112 80 55 165 55 S250 112 330 90 S430 20 600 28"/></circle></g>
</svg>